<?xml version="1.0" encoding="utf-8"?>
<!-- Designed by Vexels.com - 2016 All Rights Reserved - https://vexels.com/terms-and-conditions/  -->

<svg version="1.0" id="Capa_1" xmlns="http://www.w3.org/2000/svg" xmlns:xlink="http://www.w3.org/1999/xlink" x="0px" y="0px"
	 width="1200px" height="1200px" viewBox="0 0 1200 1200" enable-background="new 0 0 1200 1200" xml:space="preserve">
<g>
	<g>
		<path d="M403.733,1126.129c30.2-125.131,32.04-254.187,48.002-381.415c8.03-64.035,16.026-127.903,22.332-192.158
			c2.921-29.872,5.983-59.725,9.361-89.532c2.792-24.661,1.203-52.307,10.107-75.758c1.409-3.719-4.156-15.963-6.118-10.784
			c-6.093,16.046-6.723,33.385-8.055,50.344c-2.413,30.793-6.466,61.475-9.58,92.203c-6.916,68.43-13.292,136.853-23.149,204.948
			c-18.999,131.159-18.433,264.383-49.675,393.792C396.032,1121.6,401.945,1133.509,403.733,1126.129L403.733,1126.129z"/>
		<path d="M328.779,471.774c51.29-32.323,106.318-57.563,160.761-84.012c5.803-2.825,1.852-16.072-3.597-13.415
			c-55.202,26.81-111.041,52.358-163.051,85.139C317.81,462.69,322.886,475.493,328.779,471.774L328.779,471.774z"/>
		<path d="M405.953,1122.217c147.314-0.103,294.603-4.002,441.924-4.118c5.456,0,5.237-8.177,2.496-11.24
			c-6.427-7.155-10.699-8.917-20.016-12.604c-7.154-2.824-6.961,10.655-1.48,12.809c5.804,1.679,10.95,4.575,15.461,8.673
			c0.83-3.751,1.654-7.495,2.49-11.233c-147.321,0.122-294.609,4.014-441.936,4.143
			C397.898,1108.649,399.989,1122.231,405.953,1122.217L405.953,1122.217z"/>
		<path d="M841.353,1092.319c-35.952-129.268-52.822-262.511-75.378-394.488c-18.62-108.963-41.138-217.224-59.011-326.341
			c-1.196-7.341-11.394-10.255-9.901-1.177c16.657,101.719,36.628,202.812,55.08,304.177
			c25.562,140.392,41.601,282.515,79.933,420.313C834.379,1103.064,843.663,1100.607,841.353,1092.319L841.353,1092.319z"/>
		<path d="M707.344,377.552c62.131,34.382,125.034,66.711,191.579,91.778c4.137,1.544-0.174-11.375-1.403-12.771
			c-8.795-9.992-22.339-13.839-32.735-21.887c-3.873-2.998-2.11,10.12,0.63,12.237c10.34,8.003,24.108,12.089,32.735,21.894
			c-0.463-4.259-0.933-8.518-1.403-12.771c-66.538-25.054-129.442-57.39-191.572-91.772
			C702.776,362.934,703.773,375.57,707.344,377.552L707.344,377.552z"/>
		<path d="M570.844,83.45c103.089,130.529,224.411,246.086,319.296,383.152c5.179,7.489,10.622-3.352,6.678-9.046
			C801.927,320.49,680.618,204.926,577.523,74.401C571.88,67.253,566.482,77.936,570.844,83.45L570.844,83.45z"/>
		<path d="M325.627,470.951c37.605-93.174,90.414-178.647,146.375-261.746c13.955-20.723,28.225-41.238,42.508-61.739
			c6.26-8.994,32.542-58.583,44.065-58.039c14.154,0.653,15.808-16.844,10.648-25.343c-4.716-7.775-6.993,3.915-4.272,8.396
			c-7.817-12.874-54.501,60.619-57.107,64.351c-23.966,34.318-47.578,68.867-70.508,103.906
			c-45.596,69.697-87.153,142.231-118.369,219.572C317.27,464.504,323.298,476.703,325.627,470.951L325.627,470.951z"/>
		<path d="M384.612,1132.492c30.207-125.118,32.054-254.173,48.003-381.389c8.036-64.048,16.033-127.922,22.332-192.177
			c2.928-29.872,5.983-59.718,9.361-89.532c2.799-24.654,1.203-52.307,10.101-75.752c1.422-3.737-4.169-15.981-6.144-10.77
			c-6.093,16.046-6.73,33.372-8.055,50.331c-2.419,30.799-6.466,61.475-9.58,92.209c-6.922,68.443-13.298,136.86-23.161,204.955
			c-18.992,131.159-18.427,264.384-49.662,393.78C376.866,1128.014,382.817,1139.897,384.612,1132.492L384.612,1132.492z"/>
		<path d="M309.324,478.234c51.387-32.368,106.55-57.609,161.076-84.09c4.639-2.252,0.354-15.338-3.596-13.414
			c-55.099,26.765-110.809,52.326-162.73,85.048C300.304,468.152,304.634,481.2,309.324,478.234L309.324,478.234z"/>
		<path d="M386.806,1128.619c147.321-0.122,294.61-4.021,441.925-4.15c5.475,0.013,5.288-8.164,2.529-11.227
			c-6.422-7.167-10.712-8.93-20.016-12.61c-7.18-2.838-7.032,10.648-1.519,12.822c5.797,1.673,10.95,4.568,15.447,8.673
			c0.843-3.745,1.686-7.502,2.529-11.253c-147.321,0.123-294.603,4.021-441.917,4.15
			C378.751,1115.024,380.81,1128.619,386.806,1128.619L386.806,1128.619z"/>
		<path d="M821.473,1098.908c-36.968-132.896-53.671-269.981-77.295-405.592c-18.317-105.199-39.799-209.838-57.068-315.263
			c-1.113-6.781-9.973-10.744-8.467-1.544c17.275,105.417,38.371,210.114,57.074,315.249
			c24.339,136.789,40.649,275.07,77.971,409.234C815.946,1109.106,823.738,1107.04,821.473,1098.908L821.473,1098.908z"/>
		<path d="M686.884,383.548c62.459,34.576,125.716,67.047,192.608,92.222c5.405,2.039,1.86-10.519,0.438-12.134
			c-9.111-10.359-22.956-14.393-33.739-22.737c-4.929-3.828-4.066,9.76-0.47,12.533c9.927,7.688,23.335,11.485,31.744,21.032
			c0.148-4.041,0.296-8.087,0.437-12.134c-66.19-24.918-128.753-57.112-190.543-91.314
			C681.589,367.81,682.863,381.322,686.884,383.548L686.884,383.548z"/>
		<path d="M554.702,90.485c103.089,130.525,224.404,246.096,319.29,383.142c3.918,5.668,2.438-7.823,0.689-10.359
			C779.789,326.203,658.492,210.665,555.397,80.133C551.067,74.652,552.766,88.044,554.702,90.485L554.702,90.485z"/>
		<path d="M306.673,477.262c37.605-93.155,90.414-178.628,146.375-261.733c13.955-20.717,28.225-41.234,42.508-61.739
			c6.151-8.833,32.567-58.483,43.788-57.959c14.212,0.663,16.309-16.795,11.053-25.452c-4.716-7.775-7.83,3.732-4.89,8.573
			c-7.708-12.697-54.327,60.503-56.984,64.309c-23.966,34.318-47.584,68.864-70.508,103.89
			c-45.59,69.716-87.145,142.245-118.368,219.585C297.814,471.285,304.209,483.368,306.673,477.262L306.673,477.262z"/>
	</g>
	<path d="M416.826,1085.217c10.082,0.791,18.407,11.774,25.362,18.118c9.959,9.078,20.64,16.838,33.52,21.135
		c4.915,1.647,3.146-11.883-1.577-13.447c-14.154-4.722-24.988-14.36-35.74-24.365c-6.402-5.939-13.891-14.161-23.142-14.895
		C409.498,1071.307,412.052,1084.837,416.826,1085.217L416.826,1085.217z"/>
	<path d="M424.694,1048.204c44.13,28.726,78.261,68.358,126.952,90.214c3.062,1.37,1.704-11.613-2.072-13.298
		c-48.099-21.592-81.793-60.851-125.356-89.212C419.766,1033,421.684,1046.234,424.694,1048.204L424.694,1048.204z"/>
	<path d="M425.492,998.239c73.075,42.778,141.453,93.541,218.678,128.965c3.005,1.376,1.679-11.575-2.091-13.311
		c-77.212-35.425-145.597-86.188-218.672-128.972C420.879,983.448,421.863,996.115,425.492,998.239L425.492,998.239z"/>
	<path d="M435.793,955.711c80.512,56.9,159.359,117.995,250.364,157.486c3.456,1.505,1.988-11.62-1.962-13.337
		c-90.401-39.233-168.681-99.981-248.66-156.509C431.038,940.18,432.666,953.504,435.793,955.711L435.793,955.711z"/>
	<path d="M433.444,899.132c54.501,36.042,110.745,69.318,165.677,104.678c50.01,32.175,97.073,69.851,149.598,97.974
		c6.916,3.693,7.47-9.934,1.872-12.939c-55.337-29.602-105.276-69.511-157.994-103.462
		c-51.277-33.011-103.835-63.958-154.713-97.607C430.659,883.003,427.925,895.484,433.444,899.132L433.444,899.132z"/>
	<path d="M442.535,827.17c71.261,54.083,148.576,99.261,222.314,149.772c52.3,35.817,93.212,98.013,159.5,108.262
		c1.081,0.173,0.258-12.829-3.596-13.421c-67.921-10.494-114.83-78.184-168.881-115.204
		c-70.282-48.137-143.917-91.044-211.845-142.617C439.261,813.376,439.454,824.829,442.535,827.17L442.535,827.17z"/>
	<path d="M489.515,801.396c43.1,39.015,94.396,66.493,142.83,98.09c53.799,35.097,102.027,77.63,157.795,109.908
		c1.442,0.843,0.818-11.317-2.451-13.209c-52.3-30.271-98.637-68.796-148.029-103.339
		c-50.235-35.135-105.572-62.157-151.322-103.552C485.449,786.676,487.231,799.332,489.515,801.396L489.515,801.396z"/>
	<path d="M450.777,711.162c65.696,51.329,132.356,101.397,199.042,151.394c47.797,35.862,83.208,86.56,142.496,104.955
		c5.842,1.821,4.175-11.864-1.222-13.53c-60.285-18.716-99.576-73.802-148.46-110.468c-63.148-47.359-126.211-94.84-188.426-143.428
		C447.586,694.917,446.338,707.702,450.777,711.162L450.777,711.162z"/>
	<path d="M457.263,670.018c108.988,65.303,203.456,151.439,311.177,218.659c6.421,4.015,6.781-9.677,1.679-12.855
		c-107.721-67.239-202.169-153.369-311.19-218.678C452.405,653.233,452.077,666.911,457.263,670.018L457.263,670.018z"/>
	<path d="M476.847,619.559c54.513,33.597,113.576,59.023,166.957,94.518c41.89,27.871,67.143,73.487,113.395,96.121
		c7.013,3.423,7.315-10.172,1.744-12.9c-48.234-23.586-76.787-71.834-120.968-101.236c-50.744-33.752-107.528-57.422-159.378-89.398
		C472.098,602.67,471.649,616.354,476.847,619.559L476.847,619.559z"/>
	<path d="M444.163,524.963c33.668,45.062,90.569,65.354,140.347,87.055c32.169,14.026,61.275,29.505,89.179,51.097
		c29.846,23.071,57.505,47.218,92.228,62.897c6.71,3.017,6.08-10.494,1.139-12.733c-57.345-25.87-99.247-75.204-156.077-102.548
		c-54.468-26.243-123.593-43.904-161.372-94.493C444.144,508.923,440.464,520.002,444.163,524.963L444.163,524.963z"/>
	<path d="M490.03,496.403c73.912,44.85,152.738,81.291,223.542,131.224c4.008,2.83,2.071-10.268-0.702-12.224
		c-71.319-50.3-150.596-87.107-225.041-132.285C485.712,481.843,486.556,494.286,490.03,496.403L490.03,496.403z"/>
	<path d="M475.837,433.673c37.265,26.61,77.56,47.874,117.507,70.083c43.692,24.294,81.908,58.947,127.582,79.303
		c6.935,3.094,6.678-10.436,1.396-12.784c-38.313-17.082-70.611-45.48-106.428-67.143c-45.281-27.395-93.091-49.791-136.287-80.642
		C472.684,417.55,470.979,430.205,475.837,433.673L475.837,433.673z"/>
	<path d="M492.661,397.226c64.917,57.659,140.63,106.865,223.903,132.954c6.093,1.918,4.523-11.805-1.1-13.562
		c-81.459-25.536-155.621-74.221-219.045-130.574C490.101,380.434,488.28,393.334,492.661,397.226L492.661,397.226z"/>
	<path d="M411.505,307.481c85.801,77.019,203.616,102.522,291.56,176.614c6.415,5.398,7.753-7.476,3.461-11.098
		c-87.962-74.105-205.856-99.679-291.559-176.615C408.745,290.792,407.349,303.749,411.505,307.481L411.505,307.481z"/>
	<path d="M359.121,409.289c11.645,6.118,23.02,15.281,32.394,24.449c2.329,2.264,5.7,0.984,6.736-1.808
		c1.249-3.378-0.083-7.084-2.541-9.496c-10.088-9.851-22.37-19.443-34.89-26.025C353.974,392.819,353.698,406.439,359.121,409.289
		L359.121,409.289z"/>
	<path d="M379.163,386.752c18.568,13.267,37.233,26.591,52.185,44.014c5.237,6.106,6.305-7.167,3.03-10.976
		c-15.524-18.092-35.077-31.918-54.346-45.693C374.55,370.172,375.09,383.844,379.163,386.752L379.163,386.752z"/>
	<path d="M393.342,350.266c14.071,11.407,26.842,24.313,38.236,38.384c1.879,2.323,4.485,1.281,5.103-1.357
		c0.785-3.32-0.457-6.916-2.535-9.49c-11.98-14.785-25.491-28.122-40.262-40.102c-2.605-2.11-4.214,1.77-4.292,3.732
		C389.444,344.758,390.75,348.162,393.342,350.266L393.342,350.266z"/>
	<path d="M431.038,263.738c97.26,24.544,180.159,82.339,269.132,126.16c3.249,1.608,1.949-11.413-1.956-13.337
		C609.248,332.727,526.355,274.939,429.082,250.4C424.881,249.339,426.985,262.721,431.038,263.738L431.038,263.738z"/>
	<path d="M463.053,221.404c115.113,43.987,221.238,106.782,322.397,176.614c5.9,4.079,5.842-9.631,1.306-12.765
		c-101.152-69.839-207.29-132.626-322.397-176.62C457.288,205.93,457.77,219.39,463.053,221.404L463.053,221.404z"/>
	<path d="M484.683,186.848c88.966,71.492,205.148,93.077,298.225,157.84c5.495,3.815,4.825-9.824,0.785-12.63
		c-92.273-64.203-207.952-85.319-296.102-156.161C481.183,170.75,480.688,183.637,484.683,186.848L484.683,186.848z"/>
	<path d="M543.218,171.21c59.609,31.233,119.27,62.353,179.425,92.521c2.998,1.505,1.763-11.413-2.033-13.325
		c-60.156-30.168-119.816-61.288-179.432-92.521C538.277,156.361,539.448,169.241,543.218,171.21L543.218,171.21z"/>
	<path d="M572.633,137.223c33.23,16.796,65.477,35.383,98.122,53.279c6.099,3.339,5.211-10.23,0.81-12.643
		c-32.639-17.889-64.891-36.476-98.122-53.266C567.19,121.432,568.148,134.959,572.633,137.223L572.633,137.223z"/>
	<path d="M507.009,154.331c25.259,16.542,52.094,30.277,78.498,44.863c1.351,0.746,0.74-11.404-2.509-13.202
		c-26.398-14.579-53.246-28.315-78.505-44.86C503.444,140.44,503.824,152.243,507.009,154.331L507.009,154.331z"/>
	<path d="M544.775,121.963c-0.528-0.53-1.075-1.058-1.577-1.615c-0.251-0.286-0.489-0.586-0.727-0.891
		c0.65,1.058,1.126,2.2,1.428,3.419c0.173,1.65,0.335,3.304,0.501,4.954c0-0.055,0-0.103,0.007-0.158
		c-0.231,0.679-0.463,1.358-0.695,2.036c-0.219,0.367-0.392,0.27-0.547,0.244c0.534,0.087,1.042,0.338,1.538,0.528
		c1.563,0.637,3.075,1.425,4.594,2.184c3.526,1.75,7.032,3.61,10.77,4.9c3.487,1.213,1.776-11.98-2.085-13.311
		c-5.739-1.994-10.803-5.643-16.567-7.528c-4.317-1.425-3.39,5.305-2.773,7.563c1.126,4.159,3.629,6.98,6.582,9.978
		c2.272,2.294,3.005-1.975,2.953-3.378C548.069,127.763,547.014,124.234,544.775,121.963L544.775,121.963z"/>
	<path d="M426.001,286.185c2.252,9.715,20.022,16.638,27.266,21.116c28.064,17.339,56.515,34.067,84.874,50.917
		c54.514,32.374,110.919,62.929,163.36,98.637c5.713,3.886,5.263-9.786,0.991-12.688c-46.355-31.571-96.095-58.715-144.297-87.319
		c-27.383-16.245-54.764-32.478-82.038-48.91c-9.689-5.829-19.359-11.722-28.964-17.706c-5.687-3.544-14.714-13.253-13.08-6.215
		C432.196,275.717,424.096,277.982,426.001,286.185L426.001,286.185z"/>
</g>
</svg>
